<svg id="Calque_1" data-name="Calque 1" xmlns="http://www.w3.org/2000/svg" viewBox="0 0 44.08 44.08"><defs><style>.cls-1{fill:#0065fc;}</style></defs><path class="cls-1" d="M23.69,28.78c-.24-.73-.47-1.38-.71-1.94s-.4-1-.56-1.44a13.52,13.52,0,0,1-3,.63c0,1.5,0,2.78.11,3.84,0,.65,0,1.21.07,1.68s.08.84.1,1.16.1.62.14.88a5.34,5.34,0,0,0,.21.81,5.14,5.14,0,0,1-1.37.77,6.79,6.79,0,0,1-1.12.36,3,3,0,0,1-1.06.07c-.11-.33-.22-.68-.31-1.06A7.31,7.31,0,0,1,16,33.06c0-.6,0-1.39,0-2.35s0-2.19.11-3.69a4.15,4.15,0,0,0,0-.49,2.81,2.81,0,0,1,0-.5L15.46,26l-.63-.07a4.83,4.83,0,0,1-.28-1,4.94,4.94,0,0,1-.08-.74,1.71,1.71,0,0,1,.08-.56,6.06,6.06,0,0,0,1.12.1h.53c0-1,.09-2,.14-3s.08-2,.1-3,.09-1.91.11-2.78.05-1.7.07-2.43a6.92,6.92,0,0,0-1.83,1.83,6.75,6.75,0,0,0-1,2.6,1.21,1.21,0,0,1-.78-.42,5,5,0,0,1-.52-.77,5.9,5.9,0,0,1-.43-1,2.76,2.76,0,0,1,0-1.34,5.14,5.14,0,0,1,.53-1.3A5.42,5.42,0,0,1,13.35,11a4.94,4.94,0,0,1,.88-.77,11.57,11.57,0,0,1,1.51-.81,9.19,9.19,0,0,1,1.79-.63,5.82,5.82,0,0,1,.85-.71,2.36,2.36,0,0,1,.91-.38c.4-.1.62.15.67.74a4.73,4.73,0,0,1,.67,0c.23,0,.48,0,.74,0a9.86,9.86,0,0,1,2.77.42,7.74,7.74,0,0,1,2.64,1.37,6.83,6.83,0,0,1,2,2.42,7.72,7.72,0,0,1,.78,3.62,8.92,8.92,0,0,1-1.16,4.47,9.24,9.24,0,0,1-3.24,3.37l.64,1.59c.25.63.51,1.34.77,2.14.37,1,.77,1.91,1.19,2.78a17.64,17.64,0,0,0,1.38,2.21,6.9,6.9,0,0,0,1.47,1.52,3.35,3.35,0,0,0,1.55.7,2.58,2.58,0,0,1-1.06,1,3.52,3.52,0,0,1-1.19.35,4.76,4.76,0,0,1-1.41,0,3.3,3.3,0,0,1-1.76-1,8.41,8.41,0,0,1-1.3-1.86c-.35-.73-.68-1.5-1-2.32S23.92,29.53,23.69,28.78Zm-4.08-15c0,.51,0,1.14,0,1.86s0,1.51-.07,2.36,0,1.73,0,2.67,0,1.83,0,2.74A15,15,0,0,0,21.51,23a6.37,6.37,0,0,0,2.14-1,5.85,5.85,0,0,0,1.65-2A6.52,6.52,0,0,0,26,16.79a5.28,5.28,0,0,0-.53-2.5,4.53,4.53,0,0,0-1.3-1.69,5,5,0,0,0-1.79-.95,6,6,0,0,0-1.9-.31H20.1l-.39,0C19.64,12.12,19.61,12.93,19.61,13.8Z"/></svg>